<svg width="56" height="56" viewBox="0 0 56 56" fill="none" xmlns="http://www.w3.org/2000/svg">
<g filter="url(#filter0_d_1536_18543)">
<path d="M28 51C41.2548 51 52 40.2548 52 27C52 13.7452 41.2548 3 28 3C14.7452 3 4 13.7452 4 27C4 40.2548 14.7452 51 28 51Z" fill="url(#paint0_linear_1536_18543)"/>
<path d="M28 3.32031C41.0781 3.32031 51.6797 13.9219 51.6797 27C51.6797 40.0781 41.0781 50.6797 28 50.6797C14.9219 50.6797 4.32031 40.0781 4.32031 27C4.32031 13.9219 14.9219 3.32031 28 3.32031Z" stroke="url(#paint1_linear_1536_18543)" stroke-width="0.64"/>
</g>
<path d="M24.211 17.6289C24.3638 17.6289 24.5103 17.6963 24.6183 17.8164C24.7264 17.9364 24.787 18.0992 24.787 18.2689V19.4657H30.9725V18.2771C30.9725 18.1074 31.0331 17.9446 31.1412 17.8246C31.2492 17.7046 31.3957 17.6371 31.5485 17.6371C31.7012 17.6371 31.8477 17.7046 31.9557 17.8246C32.0638 17.9446 32.1245 18.1074 32.1245 18.2771V19.4657H34.3544C34.7907 19.4657 35.2092 19.6582 35.5178 20.001C35.8264 20.3437 35.9999 20.8086 36.0001 21.2934V34.087C35.9999 34.5718 35.8264 35.0366 35.5178 35.3794C35.2092 35.7221 34.7907 35.9146 34.3544 35.9146H21.1887C20.7524 35.9146 20.3339 35.7221 20.0253 35.3794C19.7167 35.0366 19.5432 34.5718 19.543 34.087V21.2934C19.5432 20.8086 19.7167 20.3437 20.0253 20.001C20.3339 19.6582 20.7524 19.4657 21.1887 19.4657H23.635V18.268C23.6353 18.0984 23.696 17.9359 23.804 17.816C23.912 17.6962 24.0584 17.6289 24.211 17.6289ZM20.695 24.7073V34.087C20.695 34.159 20.7077 34.2303 20.7326 34.2969C20.7574 34.3634 20.7937 34.4239 20.8396 34.4749C20.8854 34.5258 20.9398 34.5662 20.9997 34.5938C21.0596 34.6213 21.1238 34.6355 21.1887 34.6355H34.3544C34.4192 34.6355 34.4834 34.6213 34.5433 34.5938C34.6032 34.5662 34.6577 34.5258 34.7035 34.4749C34.7494 34.4239 34.7857 34.3634 34.8105 34.2969C34.8353 34.2303 34.8481 34.159 34.8481 34.087V24.7201L20.695 24.7073ZM25.029 30.9949V32.5181H23.6573V30.9949H25.029ZM28.457 30.9949V32.5181H27.0861V30.9949H28.457ZM31.8858 30.9949V32.5181H30.5141V30.9949H31.8858ZM25.029 27.3587V28.8819H23.6573V27.3587H25.029ZM28.457 27.3587V28.8819H27.0861V27.3587H28.457ZM31.8858 27.3587V28.8819H30.5141V27.3587H31.8858ZM23.635 20.7448H21.1887C21.1238 20.7448 21.0596 20.759 20.9997 20.7865C20.9398 20.8141 20.8854 20.8545 20.8396 20.9055C20.7937 20.9564 20.7574 21.0169 20.7326 21.0834C20.7077 21.15 20.695 21.2213 20.695 21.2934V23.4282L34.8481 23.441V21.2934C34.8481 21.2213 34.8353 21.15 34.8105 21.0834C34.7857 21.0169 34.7494 20.9564 34.7035 20.9055C34.6577 20.8545 34.6032 20.8141 34.5433 20.7865C34.4834 20.759 34.4192 20.7448 34.3544 20.7448H32.1245V21.5942C32.1245 21.7639 32.0638 21.9267 31.9557 22.0467C31.8477 22.1667 31.7012 22.2342 31.5485 22.2342C31.3957 22.2342 31.2492 22.1667 31.1412 22.0467C31.0331 21.9267 30.9725 21.7639 30.9725 21.5942V20.7448H24.787V21.5859C24.787 21.7557 24.7264 21.9185 24.6183 22.0385C24.5103 22.1585 24.3638 22.2259 24.211 22.2259C24.0583 22.2259 23.9118 22.1585 23.8037 22.0385C23.6957 21.9185 23.635 21.7557 23.635 21.5859V20.7448Z" fill="white"/>
<defs>
<filter id="filter0_d_1536_18543" x="0" y="0" width="56" height="56" filterUnits="userSpaceOnUse" color-interpolation-filters="sRGB">
<feFlood flood-opacity="0" result="BackgroundImageFix"/>
<feColorMatrix in="SourceAlpha" type="matrix" values="0 0 0 0 0 0 0 0 0 0 0 0 0 0 0 0 0 0 127 0" result="hardAlpha"/>
<feOffset dy="1"/>
<feGaussianBlur stdDeviation="2"/>
<feComposite in2="hardAlpha" operator="out"/>
<feColorMatrix type="matrix" values="0 0 0 0 0 0 0 0 0 0 0 0 0 0 0 0 0 0 0.25 0"/>
<feBlend mode="normal" in2="BackgroundImageFix" result="effect1_dropShadow_1536_18543"/>
<feBlend mode="normal" in="SourceGraphic" in2="effect1_dropShadow_1536_18543" result="shape"/>
</filter>
<linearGradient id="paint0_linear_1536_18543" x1="28" y1="3" x2="28" y2="51" gradientUnits="userSpaceOnUse">
<stop stop-color="#698AF8"/>
<stop offset="1" stop-color="#5EDB9A"/>
</linearGradient>
<linearGradient id="paint1_linear_1536_18543" x1="4.56861" y1="51" x2="108.816" y2="24.288" gradientUnits="userSpaceOnUse">
<stop offset="0.0814986" stop-color="#014579"/>
<stop offset="0.337366" stop-color="#095A6E"/>
<stop offset="0.840276" stop-color="#32CD32"/>
</linearGradient>
</defs>
</svg>
