<svg width="52" height="52" viewBox="0 0 52 52" fill="none" xmlns="http://www.w3.org/2000/svg">
<g filter="url(#filter0_d_762_20048)">
<path d="M26 47C38.1503 47 48 37.1503 48 25C48 12.8497 38.1503 3 26 3C13.8497 3 4 12.8497 4 25C4 37.1503 13.8497 47 26 47Z" fill="url(#paint0_linear_762_20048)" fill-opacity="0.28" shape-rendering="crispEdges"/>
</g>
<path d="M26.9428 32.473C25.56 32.473 24.382 31.9864 23.4089 31.0133C22.4357 30.0402 21.9492 28.8622 21.9492 27.4793V27.0376C20.848 26.8583 19.9325 26.3428 19.2027 25.4911C18.4728 24.6394 18.1079 23.6376 18.1079 22.4857V17.8762H20.4127V17.1079H21.9492V20.1809H20.4127V19.4127H19.6444V22.4857C19.6444 23.3308 19.9453 24.0542 20.5471 24.656C21.1489 25.2578 21.8724 25.5587 22.7174 25.5587C23.5625 25.5587 24.286 25.2578 24.8878 24.656C25.4896 24.0542 25.7904 23.3308 25.7904 22.4857V19.4127H25.0222V20.1809H23.4857V17.1079H25.0222V17.8762H27.327V22.4857C27.327 23.6381 26.962 24.6401 26.2322 25.4919C25.5024 26.3436 24.5869 26.8588 23.4857 27.0376V27.4793C23.4857 28.4397 23.8219 29.2561 24.4944 29.9285C25.1669 30.601 25.983 30.937 26.9428 30.9365C27.9026 30.936 28.719 30.6 29.392 29.9285C30.065 29.2571 30.401 28.4407 30.4 27.4793V26.1925C29.9518 26.0389 29.5838 25.7636 29.296 25.3666C29.0082 24.9697 28.864 24.5216 28.8635 24.0222C28.8635 23.382 29.0875 22.8378 29.5357 22.3897C29.9838 21.9415 30.528 21.7174 31.1682 21.7174C31.8084 21.7174 32.3526 21.9415 32.8008 22.3897C33.2489 22.8378 33.473 23.382 33.473 24.0222C33.473 24.5216 33.3291 24.9697 33.0412 25.3666C32.7534 25.7636 32.3851 26.0389 31.9365 26.1925V27.4793C31.9365 28.8622 31.4499 30.0402 30.4768 31.0133C29.5037 31.9864 28.3257 32.473 26.9428 32.473ZM31.1682 24.7904C31.3859 24.7904 31.5685 24.7167 31.716 24.5692C31.8635 24.4217 31.937 24.2394 31.9365 24.0222C31.936 23.805 31.8622 23.6227 31.7152 23.4752C31.5682 23.3277 31.3859 23.2539 31.1682 23.2539C30.9506 23.2539 30.7682 23.3277 30.6212 23.4752C30.4742 23.6227 30.4005 23.805 30.4 24.0222C30.3995 24.2394 30.4732 24.4219 30.6212 24.57C30.7692 24.718 30.9516 24.7915 31.1682 24.7904Z" fill="#014579"/>
<defs>
<filter id="filter0_d_762_20048" x="0" y="0" width="52" height="52" filterUnits="userSpaceOnUse" color-interpolation-filters="sRGB">
<feFlood flood-opacity="0" result="BackgroundImageFix"/>
<feColorMatrix in="SourceAlpha" type="matrix" values="0 0 0 0 0 0 0 0 0 0 0 0 0 0 0 0 0 0 127 0" result="hardAlpha"/>
<feOffset dy="1"/>
<feGaussianBlur stdDeviation="2"/>
<feComposite in2="hardAlpha" operator="out"/>
<feColorMatrix type="matrix" values="0 0 0 0 0 0 0 0 0 0 0 0 0 0 0 0 0 0 0.25 0"/>
<feBlend mode="normal" in2="BackgroundImageFix" result="effect1_dropShadow_762_20048"/>
<feBlend mode="normal" in="SourceGraphic" in2="effect1_dropShadow_762_20048" result="shape"/>
</filter>
<linearGradient id="paint0_linear_762_20048" x1="26" y1="3" x2="26" y2="47" gradientUnits="userSpaceOnUse">
<stop stop-color="#698AF8"/>
<stop offset="1" stop-color="#5EDB9A"/>
</linearGradient>
</defs>
</svg>
