<svg width="56" height="56" viewBox="0 0 56 56" fill="none" xmlns="http://www.w3.org/2000/svg">
<g filter="url(#filter0_d_762_26598)">
<path d="M28 51C41.2548 51 52 40.2548 52 27C52 13.7452 41.2548 3 28 3C14.7452 3 4 13.7452 4 27C4 40.2548 14.7452 51 28 51Z" fill="url(#paint0_linear_762_26598)"/>
<path d="M28 3.32031C41.0781 3.32031 51.6797 13.9219 51.6797 27C51.6797 40.0781 41.0781 50.6797 28 50.6797C14.9219 50.6797 4.32031 40.0781 4.32031 27C4.32031 13.9219 14.9219 3.32031 28 3.32031Z" stroke="url(#paint1_linear_762_26598)" stroke-width="0.64"/>
</g>
<path d="M18.8573 33.6279L24.343 28.1422L28.0001 31.7993L35.7716 23.0405L34.4824 21.7422L28.0001 29.0565L24.343 25.3993L17.4858 32.2565L18.8573 33.6279Z" fill="white"/>
<path d="M31.4858 19.9141H39.9858L38.9858 26.4141" stroke="white" stroke-width="2"/>
<defs>
<filter id="filter0_d_762_26598" x="0" y="0" width="56" height="56" filterUnits="userSpaceOnUse" color-interpolation-filters="sRGB">
<feFlood flood-opacity="0" result="BackgroundImageFix"/>
<feColorMatrix in="SourceAlpha" type="matrix" values="0 0 0 0 0 0 0 0 0 0 0 0 0 0 0 0 0 0 127 0" result="hardAlpha"/>
<feOffset dy="1"/>
<feGaussianBlur stdDeviation="2"/>
<feComposite in2="hardAlpha" operator="out"/>
<feColorMatrix type="matrix" values="0 0 0 0 0 0 0 0 0 0 0 0 0 0 0 0 0 0 0.25 0"/>
<feBlend mode="normal" in2="BackgroundImageFix" result="effect1_dropShadow_762_26598"/>
<feBlend mode="normal" in="SourceGraphic" in2="effect1_dropShadow_762_26598" result="shape"/>
</filter>
<linearGradient id="paint0_linear_762_26598" x1="28" y1="3" x2="28" y2="51" gradientUnits="userSpaceOnUse">
<stop stop-color="#698AF8"/>
<stop offset="1" stop-color="#5EDB9A"/>
</linearGradient>
<linearGradient id="paint1_linear_762_26598" x1="4.56861" y1="51" x2="108.816" y2="24.288" gradientUnits="userSpaceOnUse">
<stop offset="0.0814986" stop-color="#014579"/>
<stop offset="0.337366" stop-color="#095A6E"/>
<stop offset="0.840276" stop-color="#32CD32"/>
</linearGradient>
</defs>
</svg>
